<?xml version="1.0" standalone="no"?>
<!DOCTYPE svg PUBLIC "-//W3C//DTD SVG 20010904//EN"
 "http://www.w3.org/TR/2001/REC-SVG-20010904/DTD/svg10.dtd">
<svg version="1.0" xmlns="http://www.w3.org/2000/svg"
 width="1024.000000pt" height="1024.000000pt" viewBox="0 0 1024.000000 1024.000000"
 preserveAspectRatio="xMidYMid meet">

<g transform="translate(0.000000,1024.000000) scale(0.100000,-0.100000)"
fill="#000000" stroke="none">
<path d="M7210 7327 c-25 -12 -160 -106 -300 -208 -140 -102 -327 -236 -415
-299 -88 -63 -239 -171 -335 -240 -208 -150 -760 -542 -880 -626 -47 -32 -137
-96 -200 -142 -170 -123 -309 -181 -433 -182 -56 0 -184 28 -252 57 -61 25
-287 173 -450 293 -147 110 -197 140 -230 140 -25 0 -44 -15 -109 -82 -150
-158 -244 -267 -250 -294 -13 -50 -1 -62 484 -509 134 -124 460 -407 650 -565
102 -84 210 -174 240 -200 81 -68 131 -100 159 -100 28 0 48 20 280 280 324
364 506 573 722 831 123 146 256 303 296 350 79 92 393 468 513 614 41 50 127
151 190 225 64 74 161 189 217 255 55 66 130 154 167 195 89 102 108 177 53
215 -30 21 -64 18 -117 -8z m114 -13 c19 -18 20 -70 3 -100 -11 -21 -99 -125
-392 -468 -66 -78 -188 -222 -271 -321 -947 -1133 -974 -1164 -1446 -1696
-119 -134 -236 -265 -260 -291 -70 -75 -76 -73 -279 95 -360 296 -727 617
-1044 912 -256 238 -255 237 -261 275 -5 33 -1 41 56 105 35 39 110 119 167
178 93 96 108 108 130 102 25 -6 117 -67 198 -131 74 -58 331 -232 397 -268
107 -59 171 -77 293 -83 88 -4 123 -2 170 12 88 25 185 77 288 153 51 38 121
88 157 112 100 67 1074 761 1420 1012 47 34 119 86 160 115 41 30 131 95 200
146 214 156 273 183 314 141z"/>
<path d="M3475 7299 c-339 -49 -668 -318 -776 -634 -16 -44 -33 -109 -38 -145
-14 -85 -13 -2625 0 -2725 46 -331 293 -588 637 -660 109 -22 2695 -23 2825 0
322 56 584 264 697 553 45 117 44 95 50 1112 l5 975 26 12 c15 7 73 22 130 33
151 30 271 90 365 184 64 63 97 116 81 132 -10 11 -653 -17 -727 -32 -97 -19
-256 -97 -338 -167 -64 -54 -104 -96 -357 -382 -82 -94 -185 -208 -227 -254
-43 -47 -78 -91 -78 -98 0 -24 28 -25 92 -3 162 57 358 187 541 360 l97 92 0
-834 c0 -799 -1 -838 -20 -912 -58 -226 -220 -378 -445 -415 -95 -16 -2557
-11 -2562 5 -4 13 286 258 729 615 l157 126 123 7 c135 8 165 17 187 58 14 25
14 29 -5 55 -11 15 -110 92 -220 171 -109 79 -242 174 -295 213 -91 65 -117
80 -105 61 3 -5 105 -80 227 -168 372 -267 384 -277 387 -305 6 -48 -24 -61
-165 -68 -70 -4 -137 -12 -148 -18 -19 -11 -65 -47 -396 -317 -258 -211 -496
-415 -502 -429 -3 -8 -3 -18 0 -21 4 -3 587 -6 1298 -6 1422 0 1344 -3 1469
63 85 44 194 155 235 237 68 140 65 85 68 1043 2 477 1 867 -3 867 -4 0 -46
-37 -93 -83 -143 -137 -278 -240 -411 -314 -71 -39 -219 -98 -227 -90 -6 7 -7
6 281 329 435 486 532 555 816 579 125 10 610 26 610 20 0 -16 -51 -80 -100
-124 -96 -86 -246 -148 -441 -181 -20 -4 -45 -16 -55 -27 -18 -20 -19 -54 -20
-968 0 -688 -3 -960 -12 -999 -31 -142 -105 -292 -185 -379 -95 -103 -235
-197 -371 -248 -165 -62 -77 -58 -1521 -63 -1426 -4 -1416 -4 -1574 49 -212
72 -385 233 -466 436 -56 142 -55 102 -55 1539 0 1167 2 1334 16 1402 33 164
111 306 235 431 131 132 272 218 450 273 l74 23 1700 3 c1450 2 1697 0 1685
-11 -8 -8 -104 -80 -213 -161 l-199 -146 -1406 0 c-1568 0 -1480 3 -1629 -70
-135 -67 -236 -175 -305 -328 -60 -131 -58 -84 -58 -1443 0 -1138 1 -1251 17
-1298 9 -29 25 -57 36 -62 23 -13 32 -7 233 158 82 67 271 220 419 340 247
200 271 222 284 261 10 32 10 47 2 55 -8 8 -11 2 -11 -25 0 -46 -10 -57 -160
-178 -69 -55 -223 -181 -344 -278 -381 -309 -398 -322 -407 -322 -16 0 -37 45
-49 105 -8 43 -10 403 -8 1290 4 1372 -2 1269 74 1420 76 152 215 277 363 328
l66 22 1445 5 1446 5 119 91 c66 49 155 114 197 143 87 60 128 95 128 111 0
13 -3305 12 -3395 -1z"/>
<path d="M7416 6968 c-91 -96 -122 -135 -114 -144 3 -2 180 -5 394 -4 l388 0
43 42 c43 42 73 92 73 123 0 9 -13 30 -29 46 l-29 29 -319 0 -318 0 -89 -92z
m742 56 c38 -27 29 -70 -29 -136 l-51 -58 -379 0 c-208 0 -379 3 -379 8 0 4
42 51 93 105 l92 97 315 0 c269 0 319 -2 338 -16z"/>
<path d="M7085 6538 c-70 -70 -135 -149 -135 -165 0 -10 90 -13 434 -13 239 0
442 3 451 6 26 10 166 185 163 203 -3 14 -48 16 -432 19 l-428 2 -53 -52z
m895 22 c0 -10 -103 -132 -137 -162 -17 -16 -59 -18 -450 -20 l-431 -3 19 25
c10 14 49 58 88 98 l70 72 420 0 c267 0 421 -4 421 -10z"/>
<path d="M4004 4690 c0 -52 1 -74 3 -47 2 26 2 68 0 95 -2 26 -3 4 -3 -48z"/>
</g>
</svg>
