<?xml version="1.0" standalone="no"?>
<!DOCTYPE svg PUBLIC "-//W3C//DTD SVG 20010904//EN"
 "http://www.w3.org/TR/2001/REC-SVG-20010904/DTD/svg10.dtd">
<svg version="1.0" xmlns="http://www.w3.org/2000/svg"
 width="1024.000000pt" height="1024.000000pt" viewBox="0 0 1024.000000 1024.000000"
 preserveAspectRatio="xMidYMid meet">

<g transform="translate(0.000000,1024.000000) scale(0.100000,-0.100000)"
fill="#000000" stroke="none">
<path d="M7115 7242 c-254 -186 -692 -497 -980 -696 -449 -311 -1478 -996
-1497 -996 -8 0 -98 50 -199 112 -101 61 -274 166 -385 234 -263 160 -278 167
-326 161 -54 -7 -94 -42 -171 -144 -75 -101 -87 -127 -87 -186 0 -51 19 -81
85 -138 180 -156 353 -319 793 -749 200 -195 382 -367 404 -382 31 -21 53 -28
90 -28 112 0 165 44 454 370 322 364 627 717 944 1095 102 120 201 237 221
260 96 107 521 622 590 715 130 175 251 403 236 445 -12 31 -54 13 -172 -73z"/>
<path d="M3409 7265 c-206 -33 -389 -130 -532 -284 -107 -116 -182 -252 -225
-410 l-27 -96 -3 -1250 c-2 -842 0 -1280 8 -1343 45 -393 332 -709 715 -787
72 -14 224 -15 1465 -13 1574 4 1424 -5 1625 93 125 61 214 130 297 229 67 80
139 219 170 331 22 80 23 82 28 1075 l5 994 55 23 c332 138 468 197 483 210
26 24 22 68 -10 93 -27 21 -33 21 -368 18 l-340 -3 -56 -28 c-68 -33 -83 -49
-409 -432 -258 -302 -300 -355 -300 -373 0 -27 35 -15 106 35 246 175 362 259
387 280 16 12 32 23 36 23 4 0 7 -381 5 -848 -2 -921 -2 -905 -59 -1024 -53
-110 -156 -211 -270 -264 -119 -56 -79 -55 -1480 -52 l-1289 3 369 294 c204
162 378 301 387 309 15 13 22 13 58 -2 75 -30 163 -17 228 35 40 31 51 58 51
119 0 44 -6 66 -32 110 -62 107 -172 256 -242 328 -70 71 -71 72 -123 72 -62
0 -94 -15 -143 -67 -68 -71 -82 -131 -53 -229 6 -24 21 -11 -302 -271 -325
-261 -519 -413 -527 -413 -4 0 -19 24 -33 54 -55 120 -54 93 -54 1381 0 764 4
1213 10 1255 26 163 150 331 301 410 139 72 69 69 1615 70 l1381 0 79 56 c44
30 142 99 218 152 148 103 171 126 146 142 -9 6 -622 9 -1640 9 -1305 -1
-1642 -4 -1711 -14z"/>
<path d="M7308 6935 c-53 -29 -73 -106 -43 -164 29 -58 51 -61 399 -61 251 0
324 3 351 14 72 30 85 130 26 190 l-31 31 -338 2 c-284 2 -341 0 -364 -12z"/>
<path d="M7115 6550 c-86 -35 -98 -158 -21 -213 30 -21 39 -22 351 -25 176 -2
339 0 363 3 120 18 152 163 49 225 -30 19 -52 20 -377 19 -190 0 -354 -4 -365
-9z"/>
</g>
</svg>
